<?xml version="1.0" encoding="utf-8"?>
<!-- Generator: Adobe Illustrator 19.0.0, SVG Export Plug-In . SVG Version: 6.00 Build 0)  -->
<svg version="1.1" id="Layer_1" xmlns="http://www.w3.org/2000/svg" xmlns:xlink="http://www.w3.org/1999/xlink" x="0px" y="0px"
	 viewBox="203 -76 1366 712" style="enable-background:new 203 -76 1366 712;" xml:space="preserve">
<style type="text/css">
	.st0{opacity:0.14;}
	.st1{opacity:0.4;fill:url(#SVGID_1_);enable-background:new    ;}
	.st2{opacity:0.4;fill:url(#SVGID_2_);enable-background:new    ;}
	.st3{opacity:0.4;fill:url(#SVGID_3_);enable-background:new    ;}
</style>
<g transform="translate(683,307.5) scale(1,1) translate(-683,-307.5)" class="st0">
	
		<linearGradient id="SVGID_1_" gradientUnits="userSpaceOnUse" x1="1218.4458" y1="560.4622" x2="1219.4458" y2="560.4622" gradientTransform="matrix(-1366 0 0 588.993 1665966 -329768.0938)">
		<stop  offset="0" style="stop-color:#6A6A6A"/>
		<stop  offset="1" style="stop-color:#979797"/>
	</linearGradient>
	<path class="st1" d="M1569,636V104.4c-91.1,4.7-182.1,13.1-273.2,25.2s-173.9-71.3-265-80.9s-190.3,72.4-281.4,76.9
		s-146.7,42.6-273.2-22.2C338.7-4.6,294.1,70.3,203,61.8V636H1569z"/>
	
		<linearGradient id="SVGID_2_" gradientUnits="userSpaceOnUse" x1="1218.4458" y1="560.48" x2="1219.4458" y2="560.48" gradientTransform="matrix(-1366 0 0 665.153 1665966 -372493.8438)">
		<stop  offset="0" style="stop-color:#6A6A6A"/>
		<stop  offset="1" style="stop-color:#979797"/>
	</linearGradient>
	<path class="st2" d="M1569,636V100.5c-91.1-9.9-182.1-10.1-273.2-0.5s-182.1-4-273.2-40.7S840.5,45.8,749.4,129
		s-182.1,67.9-273.2-46S294.1-44.2,203,42.9V636H1569z"/>
	
		<linearGradient id="SVGID_3_" gradientUnits="userSpaceOnUse" x1="1218.4458" y1="560.483" x2="1219.4458" y2="560.483" gradientTransform="matrix(-1366 0 0 711.8795 1665966 -398707.4063)">
		<stop  offset="0" style="stop-color:#6A6A6A"/>
		<stop  offset="1" style="stop-color:#979797"/>
	</linearGradient>
	<path class="st3" d="M1569,636V81.4c-91.1,12.8-182.1,30.2-273.2,52.2s-182.1-2.1-273.2-72.3s-182.1-46.2-273.2,72.2
		s-182.1,96.4-273.2-65.9S294.1-99.8,203,52.2V636H1569z"/>
</g>
</svg>
