<?xml version="1.0" encoding="utf-8"?>
<!-- Generator: Adobe Illustrator 19.0.0, SVG Export Plug-In . SVG Version: 6.00 Build 0)  -->
<svg version="1.1" id="Layer_1" xmlns="http://www.w3.org/2000/svg" xmlns:xlink="http://www.w3.org/1999/xlink" x="0px" y="0px"
	 viewBox="203 -27 1366 615" style="enable-background:new 203 -27 1366 615;" xml:space="preserve">
<style type="text/css">
	.st0{opacity:0.4;fill:url(#SVGID_1_);enable-background:new    ;}
	.st1{opacity:0.4;fill:url(#SVGID_2_);enable-background:new    ;}
	.st2{opacity:0.4;fill:url(#SVGID_3_);enable-background:new    ;}
	.st3{opacity:0.4;fill:url(#SVGID_4_);enable-background:new    ;}
	.st4{opacity:0.4;fill:url(#SVGID_5_);enable-background:new    ;}
</style>
<g transform="translate(683,307.5) scale(1,1) translate(-683,-307.5)">
	
		<linearGradient id="SVGID_1_" gradientUnits="userSpaceOnUse" x1="405.8514" y1="560.6158" x2="406.8514" y2="560.6158" gradientTransform="matrix(1366 0 0 552.2094 -554190 -309265.4063)">
		<stop  offset="0" style="stop-color:#FF00FF"/>
		<stop  offset="1" style="stop-color:#00FFFF"/>
	</linearGradient>
	<path class="st0" d="M1569,588V362.9c-91.1-49-182.1-82.5-273.2-100.3c-91.1-17.9-182.1-28.8-273.2-32.9
		c-91.1-4.1-182.1-31.5-273.2-82.2S567.3,65.1,476.2,52.7S294.1,34.7,203,36v552H1569z"/>
	
		<linearGradient id="SVGID_2_" gradientUnits="userSpaceOnUse" x1="405.8514" y1="560.6105" x2="406.8514" y2="560.6105" gradientTransform="matrix(1366 0 0 579.0283 -554190 -324310.8125)">
		<stop  offset="0" style="stop-color:#FF00FF"/>
		<stop  offset="1" style="stop-color:#00FFFF"/>
	</linearGradient>
	<path class="st1" d="M1569,588V373.5c-91.1,18.8-182.1-3.1-273.2-65.6c-91.1-62.5-182.1-102.4-273.2-119.5
		c-91.1-17.1-182.1-31.5-273.2-43.1s-182.1-24.8-273.2-39.4S294.1,58.9,203,9v579H1569z"/>
	
		<linearGradient id="SVGID_3_" gradientUnits="userSpaceOnUse" x1="405.8514" y1="560.6122" x2="406.8514" y2="560.6122" gradientTransform="matrix(1366 0 0 570.1877 -554190 -319351.25)">
		<stop  offset="0" style="stop-color:#FF00FF"/>
		<stop  offset="1" style="stop-color:#00FFFF"/>
	</linearGradient>
	<path class="st2" d="M1569,588V328.2c-91.1,22.8-182.1,6.4-273.2-49.4c-91.1-55.8-182.1-98.2-273.2-127.1
		c-91.1-29-182.1-39-273.2-30.1c-91.1,9-182.1,8-273.2-3S294.1,74.1,203,17.8V588H1569z"/>
	
		<linearGradient id="SVGID_4_" gradientUnits="userSpaceOnUse" x1="405.8514" y1="560.6199" x2="406.8514" y2="560.6199" gradientTransform="matrix(1366 0 0 533.5858 -554190 -298817.5938)">
		<stop  offset="0" style="stop-color:#FF00FF"/>
		<stop  offset="1" style="stop-color:#00FFFF"/>
	</linearGradient>
	<path class="st3" d="M1569,588V321.2c-91.1-80.9-182.1-107.5-273.2-79.7c-91.1,27.8-182.1,20.9-273.2-20.9
		c-91.1-41.7-182.1-64.9-273.2-69.5S567.3,135,476.2,116.6S294.1,77.5,203,54.4V588H1569z"/>
	
		<linearGradient id="SVGID_5_" gradientUnits="userSpaceOnUse" x1="405.8514" y1="560.6146" x2="406.8514" y2="560.6146" gradientTransform="matrix(1366 0 0 558.5203 -554190 -312805.8438)">
		<stop  offset="0" style="stop-color:#FF00FF"/>
		<stop  offset="1" style="stop-color:#00FFFF"/>
	</linearGradient>
	<path class="st4" d="M1569,588V307.5c-91.1,10.2-182.1,8.4-273.2-5.5c-91.1-13.9-182.1-42-273.2-84.3
		c-91.1-42.4-182.1-74.9-273.2-97.7c-91.1-22.8-182.1-42.1-273.2-58C385.1,46.1,294.1,35.2,203,29.5V588H1569z"/>
</g>
</svg>
